<svg width="36" height="35" viewBox="0 0 36 35" fill="none" xmlns="http://www.w3.org/2000/svg">
<path d="M14.3771 7.04652C13.9621 7.04652 13.5443 7.06235 13.1318 7.04652C12.7015 7.03111 12.2712 7.02486 11.841 7.02777C11.4107 7.0307 10.9804 7.04283 10.5502 7.06421C10.3445 7.07442 10.1211 7.06588 9.91871 7.10398C9.79609 7.12688 9.68428 7.1956 9.63286 7.3122C9.60312 7.38596 9.58989 7.46534 9.59414 7.54477C9.60155 7.74528 9.62348 7.94499 9.65972 8.14234C9.77631 8.83903 9.89582 9.53531 10.0224 10.2303C10.0819 10.557 10.1696 10.8787 10.2281 11.2056C10.3268 11.7578 10.4057 12.3135 10.5052 12.8657C10.6147 13.472 10.7484 14.0734 10.8529 14.6814C11.0007 15.5412 11.1235 16.4054 11.2718 17.2652C11.3944 17.982 11.5385 18.6949 11.6673 19.4099C11.787 20.071 11.9018 20.7331 12.0156 21.3952C12.158 22.2212 12.2913 23.0486 12.4395 23.873C12.606 24.8001 12.7934 25.7237 12.9571 26.6511C13.0543 27.1964 13.1365 27.7441 13.2037 28.2944C13.2616 28.7644 13.234 29.2347 13.1474 29.7021C13.015 30.4162 12.7958 31.0952 12.4322 31.7299C12.1989 32.1372 11.9007 32.492 11.602 32.8457C11.1412 33.3912 10.5772 33.8191 9.95057 34.1575C9.61018 34.341 9.25021 34.4886 8.8967 34.6476C8.53339 34.8111 8.14574 34.8609 7.75351 34.9184C7.17742 35.0021 6.59381 35.0215 6.01342 34.9762C5.43049 34.931 4.83817 34.885 4.29021 34.6532C3.67812 34.3946 3.06583 34.1286 2.53306 33.7212C2.29218 33.537 2.069 33.3286 1.84602 33.1214C1.67363 32.9609 1.51291 32.7882 1.35156 32.6159C0.979314 32.2202 0.753216 31.7355 0.523579 31.2534C0.326628 30.8396 0.155075 30.4161 0.0842903 29.9599C0.0220232 29.5475 -0.00583195 29.1306 0.00101294 28.7135C0.00351126 28.5045 0.0135742 28.2956 0.0312012 28.087C0.0472321 27.8936 0.0549356 27.6854 0.108233 27.4996C0.131551 27.4186 0.149872 27.3366 0.175896 27.2562C0.282907 26.927 0.393875 26.5982 0.523579 26.2776C0.603525 26.08 0.718864 25.8966 0.822752 25.7092C0.862934 25.6367 0.921852 25.5745 0.9612 25.501C1.28557 24.9034 1.76525 24.4391 2.28593 24.0244C3.05625 23.4096 3.91838 22.9547 4.88168 22.7184C5.18211 22.6447 5.49294 22.6111 5.80024 22.5679C6.05298 22.5322 6.30802 22.5137 6.56076 22.4794C6.75563 22.4529 6.85681 22.3392 6.85744 22.1419C6.8585 22.024 6.84579 21.9065 6.81955 21.7916C6.71691 21.3544 6.59949 20.9186 6.49936 20.4799C6.2287 19.2979 5.967 18.1144 5.7003 16.9317C5.46546 15.8906 5.22952 14.8502 4.99245 13.8106C4.85691 13.2165 4.71638 12.6237 4.57981 12.0297C4.45864 11.5031 4.33747 10.9766 4.22046 10.4492C4.06433 9.74581 3.94045 9.03329 3.7514 8.33973C3.51074 7.4567 3.35584 6.55533 3.12828 5.66981C2.96715 5.03912 2.83911 4.3997 2.70232 3.7634C2.52952 2.9599 2.6534 2.19241 3.09644 1.50885C3.54571 0.815493 4.17051 0.313489 4.99286 0.115685C5.42257 0.0115779 5.86207 -0.0369361 6.3074 0.0323992C6.4296 0.0513469 6.55723 0.0340646 6.68214 0.041144C7.14434 0.0677954 7.60694 0.0904915 8.0683 0.129011C8.3427 0.151915 8.61459 0.20605 8.88858 0.237699C9.09427 0.261435 9.30204 0.267474 9.50816 0.288711C9.87187 0.32619 10.2347 0.371996 10.5985 0.409475C10.7771 0.428215 10.9566 0.438208 11.1354 0.454657C11.4585 0.484016 11.782 0.511292 12.1045 0.547105C12.3991 0.579795 12.6929 0.62123 12.9866 0.661416C13.3081 0.705557 13.629 0.754694 13.9504 0.798211C14.2513 0.838813 14.5541 0.869837 14.8534 0.914394C15.4333 1.00039 16.0125 1.09367 16.5922 1.18278C16.8922 1.22901 17.1932 1.26752 17.4921 1.31854C17.8933 1.38725 18.2927 1.46825 18.6939 1.53779C19.1152 1.61087 19.5393 1.66937 19.9599 1.74725C20.7878 1.90091 21.6134 2.06624 22.441 2.22177C22.9629 2.31964 23.4879 2.40167 24.0092 2.50349C24.3613 2.57241 24.7079 2.66819 25.059 2.74335C25.5651 2.85141 26.0745 2.94511 26.5787 3.05714C27.0978 3.17227 27.6135 3.30261 28.1308 3.42546C29.4009 3.72675 30.6725 4.017 31.9383 4.33327C32.6145 4.50235 33.2809 4.7116 33.9495 4.91128C34.4312 5.05495 34.7768 5.37872 35.0413 5.79327C35.2161 6.0677 35.2374 6.37836 35.224 6.69401C35.2009 7.24411 35.0123 7.74841 34.8133 8.25332C34.5162 9.00706 34.2497 9.77329 33.944 10.5229C33.5548 11.4786 33.1442 12.4259 32.7333 13.3729C32.4773 13.9639 32.2129 14.5522 31.936 15.1334C31.6223 15.789 31.2842 16.4329 30.9654 17.0862C30.7957 17.4337 30.6409 17.7887 30.4865 18.1435C30.0429 19.159 29.5986 20.1745 29.1624 21.1932C28.7848 22.0752 28.5073 23.0342 27.902 23.8017C27.6295 24.1471 27.3802 24.4817 27.0276 24.7572C26.6917 25.0201 26.3121 25.2217 25.9063 25.353C25.7419 25.4056 25.5742 25.4474 25.4043 25.4779C24.1577 25.7055 23.0272 25.4125 22.0682 24.553C21.3229 23.8849 20.8947 23.0461 20.8026 22.0544C20.6986 20.938 21.0218 19.9459 21.7704 19.0994C22.3463 18.4484 23.0657 18.0344 23.9122 17.8757C24.8376 17.7022 25.7323 17.8276 26.5605 18.303C26.8135 18.4487 26.8236 18.4437 26.9268 18.1622C27.2693 17.2289 27.4592 16.2559 27.6986 15.2954C27.8494 14.6915 28.0176 14.0904 28.1735 13.4872C28.2756 13.0916 28.3804 12.696 28.4649 12.2969C28.6613 11.3686 28.9187 10.456 29.1535 9.53759C29.1928 9.38376 29.2216 9.22746 29.2399 9.06973C29.2621 8.87547 29.1711 8.72701 28.9965 8.65122C28.826 8.57628 28.6492 8.51663 28.4681 8.47299C27.8227 8.32099 27.1773 8.17296 26.5284 8.03574C26.2115 7.96932 25.889 7.92997 25.5686 7.88208C24.8932 7.78088 24.2183 7.67512 23.5415 7.58474C22.9467 7.50542 22.3488 7.44587 21.753 7.37446C21.5615 7.35135 21.3677 7.33281 21.1812 7.28617C20.8113 7.19477 20.649 6.93887 20.6909 6.55742C20.7074 6.40626 20.7169 6.25385 20.7206 6.10185C20.7254 5.91446 20.5715 5.81035 20.4023 5.79536C20.1512 5.77245 19.8999 5.75371 19.6482 5.73997C19.1944 5.71373 18.7399 5.70027 18.2848 5.69957C18.1286 5.69957 17.9725 5.67251 17.8432 5.78473C17.7355 5.87865 17.7062 6.02731 17.7151 6.16411C17.7222 6.27467 17.7187 6.38585 17.7245 6.49725C17.7405 6.80145 17.5467 6.94823 17.3258 7.00175C17.2117 7.02851 17.0948 7.04186 16.9775 7.04152C16.1119 7.04881 15.2449 7.04652 14.3771 7.04652Z" fill="#1D1D1F"/>
<path d="M18.9913 16.9971C16.722 16.9971 14.8743 15.1461 14.8743 12.8707C14.8743 10.5953 16.7211 8.74426 18.9913 8.74426C21.2615 8.74426 23.1086 10.5953 23.1086 12.8707C23.1086 15.1461 21.2623 16.9971 18.9913 16.9971ZM18.9913 10.41C17.6397 10.41 16.5398 11.5135 16.5398 12.8707C16.5398 14.2278 17.6397 15.3313 18.9913 15.3313C20.343 15.3313 21.443 14.2278 21.443 12.8707C21.443 11.5135 20.3431 10.41 18.9913 10.41Z" fill="#1D1D1F"/>
<path d="M26.137 11.1778C26.0108 11.1744 25.8848 11.1681 25.7589 11.1588C25.5187 11.1412 25.2796 11.1127 25.0416 11.0735C24.8376 11.0397 24.5915 11.0199 24.4469 10.8521C24.3509 10.7409 24.3122 10.5937 24.3085 10.4494C24.3085 10.4463 24.3085 10.4432 24.3085 10.4403C24.3034 10.2951 24.313 10.1498 24.3373 10.0066C24.396 9.70258 24.598 9.53497 24.908 9.5433C25.1913 9.5508 25.4747 9.58493 25.7578 9.6018C25.9329 9.61221 26.108 9.62088 26.2834 9.62783C26.4445 9.63428 26.6066 9.62783 26.7641 9.66468C27.0437 9.72715 27.1669 9.91932 27.1782 10.2089C27.187 10.438 27.1278 10.6489 27.0243 10.8473C26.9589 10.9723 26.8639 11.0853 26.7307 11.1401C26.5911 11.1978 26.4261 11.1817 26.2784 11.1803C26.2311 11.1798 26.184 11.179 26.137 11.1778Z" fill="#1D1D1F"/>
</svg>
