<svg width="669" height="167" viewBox="0 0 669 167" fill="none" xmlns="http://www.w3.org/2000/svg">
<path d="M240.484 128.65C249.759 128.65 254.772 125.015 257.905 121.255H258.406L260.412 127.522H277.707V34.7786H258.406V68.2413H257.905C254.772 64.4814 249.759 60.8469 240.484 60.8469C223.941 60.8469 213.915 75.1343 213.915 94.6856C213.915 114.362 223.941 128.65 240.484 128.65ZM246.375 111.73C236.85 111.73 233.466 103.835 233.466 94.6856C233.466 85.5366 236.599 77.7662 246.375 77.7662C256.15 77.7662 259.284 85.5366 259.284 94.6856C259.284 103.835 255.9 111.73 246.375 111.73Z" fill="url(#paint0_linear_120_102)"/>
<path d="M298.789 55.3325C306.184 55.3325 310.445 51.0713 310.445 44.0529C310.445 37.1598 306.184 32.8987 298.789 32.8987C291.144 32.8987 287.134 37.1598 287.134 44.0529C287.134 51.0713 291.144 55.3325 298.789 55.3325ZM289.014 127.522H308.314V61.9749H289.014V127.522Z" fill="url(#paint1_linear_120_102)"/>
<path d="M317.732 127.522H371.874V111.104H341.544V110.602L371.623 78.2675V61.9749H317.857V78.3929H347.936V78.8942L317.732 111.354V127.522Z" fill="url(#paint2_linear_120_102)"/>
<path d="M380.641 127.522H434.782V111.104H404.453V110.602L434.532 78.2675V61.9749H380.766V78.3929H410.845V78.8942L380.641 111.354V127.522Z" fill="url(#paint3_linear_120_102)"/>
<path d="M455.205 55.3325C462.599 55.3325 466.861 51.0713 466.861 44.0529C466.861 37.1598 462.599 32.8987 455.205 32.8987C447.56 32.8987 443.55 37.1598 443.55 44.0529C443.55 51.0713 447.56 55.3325 455.205 55.3325ZM445.43 127.522H464.73V61.9749H445.43V127.522Z" fill="url(#paint4_linear_120_102)"/>
<path d="M505.605 128.65C526.911 128.65 538.315 114.362 538.315 94.8109C538.315 75.1343 526.66 60.8469 505.605 60.8469C484.55 60.8469 472.894 75.1343 472.894 94.8109C472.894 114.487 484.299 128.65 505.605 128.65ZM505.605 111.73C497.709 111.73 492.571 106.717 492.571 94.8109C492.571 83.03 497.584 77.7662 505.605 77.7662C513.626 77.7662 518.639 82.9047 518.639 94.8109C518.639 106.717 513.626 111.73 505.605 111.73Z" fill="url(#paint5_linear_120_102)"/>
<path d="M557.148 128.65C564.292 128.65 568.428 124.388 568.428 117.37C568.428 110.477 564.292 106.216 557.148 106.216C549.754 106.216 545.868 110.477 545.868 117.37C545.868 124.388 549.754 128.65 557.148 128.65Z" fill="url(#paint6_linear_120_102)"/>
<path d="M598.882 128.65C607.029 128.65 612.794 125.767 616.428 121.631H616.93L618.308 127.522H635.603V84.4086C635.603 70.7478 624.825 60.8469 606.903 60.8469C587.603 60.8469 578.704 71.3745 578.704 83.6567H596.752C596.752 79.6462 600.261 76.3876 606.277 76.3876C613.42 76.3876 616.303 79.8968 616.303 84.4086V89.7977C613.671 88.9204 607.154 87.9178 602.266 87.9178C584.219 87.9178 575.947 95.9388 575.947 108.096C575.947 119.751 584.094 128.65 598.882 128.65ZM603.77 113.61C598.005 113.61 594.997 110.853 594.997 107.093C594.997 103.584 598.256 100.827 604.522 100.827C608.282 100.827 612.292 101.328 616.303 102.957V103.584C616.303 108.973 611.666 113.61 603.77 113.61Z" fill="url(#paint7_linear_120_102)"/>
<path d="M656.661 55.3325C664.055 55.3325 668.316 51.0713 668.316 44.0529C668.316 37.1598 664.055 32.8987 656.661 32.8987C649.016 32.8987 645.005 37.1598 645.005 44.0529C645.005 51.0713 649.016 55.3325 656.661 55.3325ZM646.885 127.522H666.186V61.9749H646.885V127.522Z" fill="url(#paint8_linear_120_102)"/>
<path d="M167 83.5C167 129.616 129.616 167 83.5 167C37.3842 167 0 129.616 0 83.5C0 37.3842 37.3842 0 83.5 0C129.616 0 167 37.3842 167 83.5Z" fill="url(#paint9_linear_120_102)"/>
<path d="M52.1679 60.7842L43.0817 66.1004V48.2404C43.0817 48.2404 43.8184 38.8423 52.168 33.5151C60.5176 28.1879 70.3405 31.2902 70.3405 31.2902L80.5235 37.4316L52.168 53.5676L49.3481 59.2074L52.1679 60.7842Z" fill="white"/>
<path d="M42.925 94.9252V74.0894L58.9043 64.8464L62.1942 66.413L96.3462 46.0471L105.589 51.6869L77.0769 68.1363L74.4137 73.1494L77.2336 74.8837L42.925 94.9252Z" fill="white"/>
<path d="M102.143 89.6098L44.3347 123.124C43.4169 122.1 43.0591 121.233 43.0814 118.424V102.602L83.8132 79.2592L86.7897 80.8258L121.412 60.6166L130.028 66.0997L101.673 82.7167L99.0092 87.8755L102.143 89.6098Z" fill="white"/>
<path d="M108.879 93.6719L47.3114 129.077C56.7344 137.795 62.7029 138.712 74.1004 133.307L130.028 100.878C139.743 94.3596 141.5 88.6669 140.054 78.6325L111.542 95.2385L108.879 93.6719Z" fill="white"/>
<path d="M108.409 87.0922L101.673 82.7167L136.138 62.4965L142.874 66.5697L108.409 87.0922Z" fill="#7B00F5"/>
<path d="M83.8133 72.8361L77.0769 68.1473L111.542 48.2404L118.279 52.3246L83.8133 72.8361Z" fill="#7B00F5"/>
<path d="M59.061 58.11L52.1679 53.5779L86.7899 33.5143L93.5263 37.5875L59.061 58.11Z" fill="#7B00F5"/>
<path d="M49.348 59.2176L52.1679 53.5779L59.061 58.121L93.5263 37.5985L96.5028 43.3949L58.9043 64.8574L49.348 59.2176Z" fill="#6100C2"/>
<path d="M74.4137 73.1604L77.0769 68.1473L83.8453 72.6098L118.279 52.3246L121.568 58.121L83.8133 79.2702L74.4137 73.1604Z" fill="#6100C2"/>
<path d="M99.0094 87.8865L101.673 82.7167L108.471 87.0226L142.874 66.5807L145.694 72.5338L108.879 93.6829L99.0094 87.8865Z" fill="#6100C2"/>
<defs>
<linearGradient id="paint0_linear_120_102" x1="168.338" y1="160.943" x2="708.068" y2="-0.230697" gradientUnits="userSpaceOnUse">
<stop stop-color="#1BE9FF"/>
<stop offset="0.286458" stop-color="#52B9FF"/>
<stop offset="0.692708" stop-color="#906EFF"/>
<stop offset="1" stop-color="#EA15FF"/>
</linearGradient>
<linearGradient id="paint1_linear_120_102" x1="168.338" y1="160.943" x2="708.068" y2="-0.230697" gradientUnits="userSpaceOnUse">
<stop stop-color="#1BE9FF"/>
<stop offset="0.286458" stop-color="#52B9FF"/>
<stop offset="0.692708" stop-color="#906EFF"/>
<stop offset="1" stop-color="#EA15FF"/>
</linearGradient>
<linearGradient id="paint2_linear_120_102" x1="168.338" y1="160.943" x2="708.068" y2="-0.230697" gradientUnits="userSpaceOnUse">
<stop stop-color="#1BE9FF"/>
<stop offset="0.286458" stop-color="#52B9FF"/>
<stop offset="0.692708" stop-color="#906EFF"/>
<stop offset="1" stop-color="#EA15FF"/>
</linearGradient>
<linearGradient id="paint3_linear_120_102" x1="168.338" y1="160.943" x2="708.068" y2="-0.230697" gradientUnits="userSpaceOnUse">
<stop stop-color="#1BE9FF"/>
<stop offset="0.286458" stop-color="#52B9FF"/>
<stop offset="0.692708" stop-color="#906EFF"/>
<stop offset="1" stop-color="#EA15FF"/>
</linearGradient>
<linearGradient id="paint4_linear_120_102" x1="168.338" y1="160.943" x2="708.068" y2="-0.230697" gradientUnits="userSpaceOnUse">
<stop stop-color="#1BE9FF"/>
<stop offset="0.286458" stop-color="#52B9FF"/>
<stop offset="0.692708" stop-color="#906EFF"/>
<stop offset="1" stop-color="#EA15FF"/>
</linearGradient>
<linearGradient id="paint5_linear_120_102" x1="168.338" y1="160.943" x2="708.068" y2="-0.230697" gradientUnits="userSpaceOnUse">
<stop stop-color="#1BE9FF"/>
<stop offset="0.286458" stop-color="#52B9FF"/>
<stop offset="0.692708" stop-color="#906EFF"/>
<stop offset="1" stop-color="#EA15FF"/>
</linearGradient>
<linearGradient id="paint6_linear_120_102" x1="168.338" y1="160.943" x2="708.068" y2="-0.230697" gradientUnits="userSpaceOnUse">
<stop stop-color="#1BE9FF"/>
<stop offset="0.286458" stop-color="#52B9FF"/>
<stop offset="0.692708" stop-color="#906EFF"/>
<stop offset="1" stop-color="#EA15FF"/>
</linearGradient>
<linearGradient id="paint7_linear_120_102" x1="168.338" y1="160.943" x2="708.068" y2="-0.230697" gradientUnits="userSpaceOnUse">
<stop stop-color="#1BE9FF"/>
<stop offset="0.286458" stop-color="#52B9FF"/>
<stop offset="0.692708" stop-color="#906EFF"/>
<stop offset="1" stop-color="#EA15FF"/>
</linearGradient>
<linearGradient id="paint8_linear_120_102" x1="168.338" y1="160.943" x2="708.068" y2="-0.230697" gradientUnits="userSpaceOnUse">
<stop stop-color="#1BE9FF"/>
<stop offset="0.286458" stop-color="#52B9FF"/>
<stop offset="0.692708" stop-color="#906EFF"/>
<stop offset="1" stop-color="#EA15FF"/>
</linearGradient>
<linearGradient id="paint9_linear_120_102" x1="9.71295" y1="135.355" x2="150.551" y2="27.1022" gradientUnits="userSpaceOnUse">
<stop stop-color="#F708FF"/>
<stop offset="0.322917" stop-color="#9764FF"/>
<stop offset="0.635417" stop-color="#55B6FF"/>
<stop offset="1" stop-color="#15EEFF"/>
</linearGradient>
</defs>
</svg>
