<svg width="35" height="35" viewBox="0 0 35 35" fill="none" xmlns="http://www.w3.org/2000/svg">
<path opacity="0.9" d="M0 0V35H35V0H0ZM3.19079 3.19079H31.8092V31.8092H3.19079V3.19079Z" fill="#1D1D1F"/>
<path opacity="0.9" d="M30 14.5V5L20.0928 5.0118C14.4338 5.01856 10.5526 5.05187 11.0415 5.08949C14.9092 5.38716 18.175 8.21869 18.9766 11.9694C19.1153 12.6187 19.137 12.9624 19.0994 13.9192C19.0743 14.5581 19.0277 15.204 18.9959 15.3546L18.938 15.6285L19.3977 15.562C19.6505 15.5255 20.4929 15.4996 21.2697 15.5045C22.5354 15.5124 22.7599 15.5361 23.4338 15.7331C23.8473 15.854 24.44 16.0647 24.751 16.2014C26.7288 17.0707 28.5465 18.9321 29.3272 20.8879C29.6489 21.6936 29.9118 22.8756 29.9133 23.5229C29.9139 23.7853 29.9337 24 29.9572 24C29.9807 24 30 19.725 30 14.5Z" fill="#1D1D1F"/>
</svg>
